<?xml version="1.0" encoding="utf-8"?>
<!-- Generator: Adobe Illustrator 24.0.1, SVG Export Plug-In . SVG Version: 6.00 Build 0)  -->
<svg version="1.1" id="Laag_1" xmlns="http://www.w3.org/2000/svg" xmlns:xlink="http://www.w3.org/1999/xlink" x="0px" y="0px"
	 width="453.5px" height="189.9px" viewBox="0 0 453.5 189.9" style="enable-background:new 0 0 453.5 189.9;" xml:space="preserve"
	>
<style type="text/css">
	.st0{fill:#D0D0D0;}
</style>
<g>
	<path class="st0" d="M146.8,155.3l4.7,8.1c5.6,9.7,4,18-5.4,23.4c-9.4,5.4-17.4,2.7-23-7l-18.2-31.5c-5.6-9.7-3.9-18,5.4-23.4
		c9.4-5.4,17.4-2.7,23,7l3.4,5.9l-9,5.2l-3.8-6.5c-2.5-4.3-5.4-4.9-8.4-3.1c-3,1.8-4,4.5-1.5,8.8l18.9,32.7c2.5,4.3,5.3,4.8,8.3,3
		c3-1.8,4-4.4,1.5-8.7l-5-8.7L146.8,155.3z"/>
	<path class="st0" d="M138.2,128.9c-5.6-9.7-3.7-18.2,5.7-23.6c9.4-5.4,17.7-2.8,23.3,6.9l18.2,31.5c5.6,9.7,3.7,18.2-5.7,23.6
		c-9.4,5.4-17.7,2.8-23.3-6.9L138.2,128.9z M166.3,155.5c2.5,4.3,5.4,4.9,8.4,3.1s4-4.5,1.5-8.8l-18.9-32.7
		c-2.5-4.3-5.4-4.9-8.4-3.1s-4,4.5-1.5,8.8L166.3,155.5z"/>
	<path class="st0" d="M183,105.9l25.4,43.9l-8.6,5l-35-60.6l12-6.9l30.7,30.6l-21-36.3l8.5-4.9l35,60.6l-9.8,5.7L183,105.9z"/>
	<path class="st0" d="M251.5,94.8l4.7,8.1c5.6,9.7,4,18-5.4,23.4c-9.4,5.4-17.4,2.7-23-7l-18.2-31.5c-5.6-9.7-4-18,5.4-23.4
		c9.4-5.4,17.4-2.7,23,7l3.4,5.9l-9,5.2l-3.8-6.5c-2.5-4.3-5.4-4.9-8.4-3.1s-4,4.5-1.5,8.8l18.9,32.7c2.5,4.3,5.3,4.8,8.3,3
		s4-4.4,1.5-8.7l-5-8.7L251.5,94.8z"/>
	<path class="st0" d="M259.6,73.5l13.1-7.6l5,8.7l-13.1,7.6l10.3,17.8l16.5-9.5l5,8.7l-26,15l-35-60.6l26-15l5,8.7l-16.5,9.5
		L259.6,73.5z"/>
	<path class="st0" d="M304.1,33.7l4.5,7.9c5.6,9.7,4,17.7-5.6,23.2l-4.5,2.6l13.2,22.8l-9.5,5.5l-35-60.6l14-8.1
		C290.7,21.5,298.5,24,304.1,33.7z M281.7,38.2l11.9,20.5l4.5-2.6c3-1.8,3.9-4.1,1.4-8.4l-5.3-9.1c-2.5-4.3-4.9-4.8-8-3L281.7,38.2z
		"/>
	<path class="st0" d="M297.5,17.6l29.4-17l5,8.7L322,15l30,52l-9.5,5.5l-30-52l-10,5.8L297.5,17.6z"/>
</g>
</svg>
