<?xml version="1.0" encoding="utf-8"?>
<svg version="1.0" id="Laag_1" xmlns="http://www.w3.org/2000/svg" xmlns:xlink="http://www.w3.org/1999/xlink" x="0px" y="0px" viewBox="0 0 496.1 496.1" style="enable-background:new 0 0 496.1 496.1;" xml:space="preserve">
<style type="text/css">
	.st0{fill:red}
</style>
<g>
	<path class="st0" d="M247.4,8.8c-58.8,0-106.5,47.7-106.5,106.5c0,74,106.5,163.2,106.5,163.2s106.5-89.3,106.5-163.2 C353.9,56.5,306.2,8.8,247.4,8.8z M247.4,168.3c-29.3,0-53-23.7-53-53s23.7-53,53-53c29.3,0,53,23.7,53,53S276.7,168.3,247.4,168.3z"/>
	<path class="st0" d="M493,253.9c-0.3-3-2.2-5.7-4.9-7.1l-137.7-69.9c-2.8,5.3-5.8,10.5-9.1,15.6l126.1,64.1L377.2,329l-83.4-75.4c-2.3,2.5-4.6,5-6.8,7.3l80.5,72.8L246.4,383L97.9,197.6l59.6,1.3c-3.9-6-7.7-12.1-11.1-18.2l-62.2-1.3c-1.9,0-3.7,0.5-5.2,1.5l-72,48c-2,1.3-3.4,3.4-3.8,5.8s0,4.8,1.4,6.8l165,242c1.6,2.3,4.2,3.8,7,3.9c0.1,0,0.3,0,0.4,0c2.7,0,5.3-1.2,7-3.3l68.9-84.2l130.5-53.1c0.8-0.3,1.6-0.8,2.2-1.3l104-83.5C492,259.9,493.3,256.9,493,253.9z M177.7,463.3L24.6,238.7l60.9-40.6l152.9,190.9 L177.7,463.3z"/>
</g>
</svg>